# xmcd
#
# Track frame offsets: 
#        150
#        42092
#        78434
#        139731
#        192692
#        248411
#
# Disc length: 3623 seconds
#
# Revision: 0
# Processed by: cddbd v1.5.2PL0 Copyright (c) Steve Scherf et al.
# Submitted via: ExactAudioCopy v1.0b4
#
DISCID=490e2506
DTITLE=Guitar Shorty - How Blue Can You Get
DYEAR=2010
DGENRE=Blues
TTITLE0=How Blue Can You Get
TTITLE1=The Thrill Is Gone
TTITLE2=History Of Jody (Live)
TTITLE3=Never Make Your Move Too Soon
TTITLE4=Medley The Blues Is All Right (Med Love)
TTITLE5=How Come My Dog Won't Bark When You Come Around
EXTD=
EXTT0=
EXTT1=
EXTT2=
EXTT3=
EXTT4=
EXTT5=
PLAYORDER=
